<?xml version="1.0" encoding="UTF-8" standalone="no"?>
<!DOCTYPE svg PUBLIC "-//W3C//DTD SVG 1.1//EN" "http://www.w3.org/Graphics/SVG/1.1/DTD/svg11.dtd">
<svg width="100%" height="100%" viewBox="0 0 1122 175" version="1.1" xmlns="http://www.w3.org/2000/svg" xmlns:xlink="http://www.w3.org/1999/xlink" xml:space="preserve" xmlns:serif="http://www.serif.com/" style="fill-rule:evenodd;clip-rule:evenodd;stroke-linejoin:round;stroke-miterlimit:2;">
    <g transform="matrix(1.74616,0,0,0.871785,0,0)">
        <rect id="Artboard1" x="0" y="0" width="642.518" height="200" style="fill:none;"/>
        <g id="Artboard11" serif:id="Artboard1">
            <g transform="matrix(6.20046,0,0,12.4194,-1226.37,-684.499)">
                <path d="M226.086,64.153L224.381,64.153L224.381,66.773L226.022,66.773C226.506,66.773 226.871,66.653 227.117,66.415C227.363,66.177 227.486,65.868 227.486,65.489C227.486,65.212 227.438,64.974 227.34,64.775C227.242,64.575 227.092,64.422 226.889,64.315C226.686,64.207 226.418,64.153 226.086,64.153ZM227.563,63.55C227.762,63.601 227.94,63.675 228.096,63.773C228.397,63.964 228.621,64.211 228.77,64.514C228.918,64.817 228.992,65.144 228.992,65.495C228.992,66.312 228.73,66.931 228.204,67.353C227.679,67.775 226.951,67.985 226.022,67.985L222.869,67.985L222.869,59.454L225.781,59.454C226.723,59.454 227.46,59.641 227.993,60.014C228.527,60.387 228.793,60.97 228.793,61.763C228.793,62.114 228.708,62.437 228.538,62.73C228.368,63.023 228.117,63.261 227.785,63.444C227.715,63.484 227.641,63.519 227.563,63.55ZM224.381,63.052L225.799,63.052C226.272,63.052 226.637,62.948 226.895,62.741C227.152,62.534 227.281,62.241 227.281,61.862C227.281,61.444 227.159,61.142 226.915,60.954C226.671,60.767 226.293,60.673 225.781,60.673L224.381,60.673L224.381,63.052Z" style="fill:white;fill-rule:nonzero;"/>
                <rect x="230.416" y="58.985" width="1.453" height="9" style="fill:white;fill-rule:nonzero;"/>
                <path d="M236.205,68.103C235.576,68.103 235.033,67.967 234.576,67.695C234.119,67.424 233.768,67.057 233.522,66.594C233.276,66.131 233.152,65.612 233.152,65.038L233.152,64.798C233.152,64.138 233.277,63.563 233.527,63.072C233.777,62.582 234.12,62.202 234.556,61.933C234.991,61.663 235.485,61.528 236.035,61.528C236.645,61.528 237.151,61.66 237.553,61.924C237.955,62.188 238.256,62.553 238.455,63.02C238.654,63.486 238.754,64.027 238.754,64.64L238.754,65.267L234.617,65.267C234.637,65.536 234.699,65.782 234.805,66.005C234.938,66.29 235.131,66.516 235.385,66.682C235.639,66.848 235.942,66.931 236.293,66.931C236.633,66.931 236.935,66.864 237.198,66.732C237.462,66.599 237.69,66.407 237.881,66.157L238.643,66.919C238.444,67.22 238.144,67.492 237.743,67.736C237.343,67.981 236.83,68.103 236.205,68.103ZM234.647,64.218L237.319,64.218L237.319,64.107C237.311,63.86 237.264,63.63 237.178,63.415C237.092,63.2 236.956,63.027 236.771,62.894C236.585,62.761 236.338,62.694 236.029,62.694C235.721,62.694 235.461,62.781 235.25,62.955C235.039,63.129 234.879,63.372 234.77,63.685C234.715,63.849 234.674,64.027 234.647,64.218Z" style="fill:white;fill-rule:nonzero;"/>
                <path d="M241.274,67.985L239.82,67.985L239.82,61.646L241.186,61.646L241.233,62.39C241.385,62.202 241.559,62.044 241.754,61.915C242.133,61.657 242.574,61.528 243.078,61.528C243.488,61.528 243.844,61.606 244.145,61.76C244.445,61.914 244.68,62.164 244.848,62.51C245.016,62.856 245.1,63.319 245.1,63.902L245.1,67.985L243.641,67.985L243.641,63.89C243.641,63.597 243.599,63.364 243.515,63.193C243.431,63.021 243.306,62.899 243.14,62.826C242.974,62.754 242.772,62.718 242.533,62.718C242.291,62.718 242.077,62.766 241.892,62.861C241.706,62.957 241.547,63.091 241.414,63.263C241.363,63.333 241.317,63.407 241.274,63.485L241.274,67.985Z" style="fill:white;fill-rule:nonzero;"/>
                <path d="M247.713,64.886C247.713,65.261 247.76,65.602 247.854,65.908C247.947,66.215 248.097,66.459 248.302,66.641C248.507,66.822 248.777,66.913 249.113,66.913C249.43,66.913 249.69,66.845 249.893,66.708C250.1,66.568 250.26,66.38 250.373,66.146L250.373,63.474C250.319,63.368 250.256,63.271 250.186,63.181C250.065,63.036 249.916,62.923 249.74,62.841C249.565,62.759 249.36,62.718 249.125,62.718C248.789,62.718 248.517,62.809 248.308,62.99C248.099,63.172 247.947,63.418 247.854,63.729C247.76,64.039 247.713,64.384 247.713,64.763L247.713,64.886ZM246.26,64.763C246.26,64.122 246.36,63.559 246.562,63.072C246.763,62.586 247.049,62.207 247.42,61.936C247.791,61.664 248.236,61.528 248.756,61.528C249.268,61.528 249.695,61.661 250.039,61.927C250.16,62.021 250.272,62.126 250.373,62.243L250.373,58.985L251.826,58.985L251.826,67.985L250.508,67.985L250.438,67.312C250.32,67.46 250.19,67.591 250.045,67.704C249.697,67.97 249.264,68.103 248.744,68.103C248.233,68.103 247.791,67.963 247.42,67.684C247.049,67.404 246.763,67.023 246.562,66.538C246.36,66.054 246.26,65.503 246.26,64.886L246.26,64.763Z" style="fill:white;fill-rule:nonzero;"/>
                <path d="M256.104,68.103C255.475,68.103 254.932,67.967 254.475,67.695C254.018,67.424 253.666,67.057 253.42,66.594C253.174,66.131 253.051,65.612 253.051,65.038L253.051,64.798C253.051,64.138 253.176,63.563 253.426,63.072C253.676,62.582 254.019,62.202 254.454,61.933C254.89,61.663 255.383,61.528 255.934,61.528C256.543,61.528 257.049,61.66 257.451,61.924C257.854,62.188 258.154,62.553 258.354,63.02C258.553,63.486 258.652,64.027 258.652,64.64L258.652,65.267L254.516,65.267C254.535,65.536 254.598,65.782 254.703,66.005C254.836,66.29 255.029,66.516 255.283,66.682C255.537,66.848 255.84,66.931 256.192,66.931C256.531,66.931 256.833,66.864 257.097,66.732C257.36,66.599 257.588,66.407 257.779,66.157L258.541,66.919C258.342,67.22 258.042,67.492 257.642,67.736C257.241,67.981 256.729,68.103 256.104,68.103ZM254.545,64.218L257.217,64.218L257.217,64.107C257.209,63.86 257.162,63.63 257.076,63.415C256.99,63.2 256.855,63.027 256.669,62.894C256.484,62.761 256.236,62.694 255.928,62.694C255.619,62.694 255.36,62.781 255.149,62.955C254.938,63.129 254.777,63.372 254.668,63.685C254.613,63.849 254.572,64.027 254.545,64.218Z" style="fill:white;fill-rule:nonzero;"/>
                <path d="M263.1,62.982C263.01,62.966 262.915,62.954 262.816,62.946C262.716,62.939 262.617,62.935 262.52,62.935C262.199,62.935 261.933,62.992 261.72,63.108C261.507,63.223 261.346,63.388 261.236,63.603C261.221,63.634 261.205,63.667 261.19,63.702L261.19,67.985L259.736,67.985L259.736,61.646L261.119,61.646L261.16,62.384C261.27,62.196 261.401,62.036 261.553,61.903C261.834,61.653 262.186,61.528 262.608,61.528C262.69,61.528 262.781,61.536 262.883,61.552C262.985,61.568 263.061,61.585 263.111,61.605L263.1,62.982Z" style="fill:white;fill-rule:nonzero;"/>
                <path d="M271.578,65.782C271.578,65.552 271.53,65.356 271.435,65.193C271.339,65.031 271.16,64.881 270.899,64.742C270.637,64.604 270.26,64.458 269.768,64.306C269.365,64.185 268.993,64.046 268.652,63.89C268.31,63.734 268.012,63.553 267.758,63.348C267.504,63.143 267.306,62.904 267.163,62.633C267.021,62.361 266.949,62.048 266.949,61.693C266.949,61.228 267.078,60.818 267.336,60.465C267.594,60.111 267.951,59.835 268.408,59.636C268.865,59.437 269.395,59.337 269.996,59.337C270.637,59.337 271.188,59.453 271.649,59.686C272.11,59.918 272.464,60.232 272.712,60.626C272.96,61.021 273.084,61.46 273.084,61.944L271.572,61.944C271.572,61.675 271.515,61.434 271.4,61.221C271.284,61.008 271.11,60.842 270.875,60.723C270.641,60.604 270.342,60.544 269.979,60.544C269.639,60.544 269.356,60.595 269.129,60.696C268.902,60.798 268.735,60.935 268.625,61.107C268.516,61.278 268.461,61.474 268.461,61.693C268.461,61.9 268.527,62.083 268.66,62.243C268.793,62.403 268.994,62.549 269.264,62.68C269.533,62.811 269.869,62.937 270.272,63.058C270.904,63.241 271.43,63.456 271.848,63.702C272.266,63.948 272.577,64.239 272.782,64.575C272.987,64.911 273.09,65.31 273.09,65.771C273.09,66.251 272.965,66.666 272.715,67.016C272.465,67.365 272.111,67.634 271.654,67.821C271.197,68.009 270.66,68.103 270.043,68.103C269.633,68.103 269.229,68.047 268.83,67.936C268.432,67.824 268.071,67.656 267.749,67.432C267.427,67.207 267.169,66.925 266.976,66.585C266.782,66.245 266.686,65.845 266.686,65.384L268.197,65.384C268.197,65.657 268.244,65.89 268.338,66.081C268.432,66.273 268.563,66.43 268.731,66.553C268.899,66.676 269.095,66.765 269.319,66.819C269.544,66.874 269.785,66.902 270.043,66.902C270.383,66.902 270.666,66.854 270.893,66.758C271.119,66.662 271.29,66.53 271.405,66.362C271.521,66.194 271.578,66.001 271.578,65.782Z" style="fill:white;fill-rule:nonzero;"/>
                <path d="M276.061,61.646L277.186,61.646L277.186,62.718L276.061,62.718L276.061,66.198C276.061,66.394 276.088,66.541 276.143,66.641C276.197,66.74 276.276,66.808 276.377,66.843C276.479,66.878 276.596,66.896 276.729,66.896C276.826,66.896 276.92,66.89 277.01,66.878C277.1,66.866 277.172,66.855 277.227,66.843L277.227,67.962C277.11,68.001 276.974,68.034 276.819,68.062C276.665,68.089 276.485,68.103 276.277,68.103C275.953,68.103 275.665,68.044 275.413,67.927C275.161,67.81 274.964,67.619 274.821,67.356C274.679,67.092 274.608,66.741 274.608,66.304L274.608,62.718L273.588,62.718L273.588,61.646L274.608,61.646L274.608,60.093L276.061,60.093L276.061,61.646Z" style="fill:white;fill-rule:nonzero;"/>
                <path d="M282.049,61.646L283.502,61.646L283.502,67.985L282.131,67.985L282.096,67.347C281.979,67.487 281.846,67.61 281.697,67.716C281.342,67.974 280.881,68.103 280.315,68.103C279.69,68.103 279.184,67.919 278.797,67.552C278.41,67.185 278.217,66.581 278.217,65.741L278.217,61.646L279.67,61.646L279.67,65.753C279.67,66.046 279.716,66.277 279.808,66.447C279.9,66.617 280.022,66.737 280.174,66.808C280.326,66.878 280.494,66.913 280.678,66.913C281.072,66.913 281.383,66.837 281.61,66.685C281.805,66.552 281.951,66.382 282.049,66.175L282.049,61.646Z" style="fill:white;fill-rule:nonzero;"/>
                <path d="M286.121,64.886C286.121,65.261 286.168,65.602 286.262,65.908C286.356,66.215 286.505,66.459 286.71,66.641C286.915,66.822 287.186,66.913 287.522,66.913C287.838,66.913 288.098,66.845 288.301,66.708C288.508,66.568 288.668,66.38 288.781,66.146L288.781,63.474C288.727,63.368 288.664,63.271 288.594,63.181C288.473,63.036 288.324,62.923 288.149,62.841C287.973,62.759 287.768,62.718 287.533,62.718C287.197,62.718 286.925,62.809 286.716,62.99C286.507,63.172 286.356,63.418 286.262,63.729C286.168,64.039 286.121,64.384 286.121,64.763L286.121,64.886ZM284.668,64.763C284.668,64.122 284.769,63.559 284.97,63.072C285.171,62.586 285.457,62.207 285.828,61.936C286.199,61.664 286.645,61.528 287.164,61.528C287.676,61.528 288.104,61.661 288.447,61.927C288.569,62.021 288.68,62.126 288.781,62.243L288.781,58.985L290.235,58.985L290.235,67.985L288.916,67.985L288.846,67.312C288.729,67.46 288.598,67.591 288.453,67.704C288.106,67.97 287.672,68.103 287.152,68.103C286.641,68.103 286.199,67.963 285.828,67.684C285.457,67.404 285.171,67.023 284.97,66.538C284.769,66.054 284.668,65.503 284.668,64.886L284.668,64.763Z" style="fill:white;fill-rule:nonzero;"/>
                <path d="M291.705,59.987C291.705,59.765 291.777,59.58 291.922,59.434C292.067,59.287 292.268,59.214 292.526,59.214C292.783,59.214 292.986,59.287 293.135,59.434C293.283,59.58 293.358,59.765 293.358,59.987C293.358,60.206 293.283,60.389 293.135,60.535C292.986,60.682 292.783,60.755 292.526,60.755C292.268,60.755 292.067,60.682 291.922,60.535C291.777,60.389 291.705,60.206 291.705,59.987ZM293.252,67.985L291.799,67.985L291.799,61.646L293.252,61.646L293.252,67.985Z" style="fill:white;fill-rule:nonzero;"/>
                <path d="M295.965,64.88C295.965,65.255 296.018,65.598 296.123,65.908C296.229,66.219 296.392,66.468 296.612,66.655C296.833,66.843 297.119,66.937 297.471,66.937C297.819,66.937 298.103,66.843 298.323,66.655C298.544,66.468 298.706,66.219 298.81,65.908C298.913,65.598 298.965,65.255 298.965,64.88L298.965,64.757C298.965,64.386 298.913,64.044 298.81,63.732C298.706,63.419 298.543,63.168 298.32,62.979C298.098,62.789 297.811,62.694 297.459,62.694C297.111,62.694 296.827,62.789 296.607,62.979C296.386,63.168 296.224,63.419 296.12,63.732C296.017,64.044 295.965,64.386 295.965,64.757L295.965,64.88ZM294.512,64.757C294.512,64.14 294.629,63.589 294.863,63.105C295.098,62.62 295.435,62.236 295.874,61.953C296.314,61.67 296.842,61.528 297.459,61.528C298.084,61.528 298.617,61.67 299.059,61.953C299.5,62.236 299.837,62.62 300.069,63.105C300.302,63.589 300.418,64.14 300.418,64.757L300.418,64.88C300.418,65.493 300.302,66.043 300.069,66.529C299.837,67.016 299.501,67.4 299.062,67.681C298.622,67.962 298.092,68.103 297.471,68.103C296.85,68.103 296.319,67.962 295.877,67.681C295.436,67.4 295.098,67.016 294.863,66.529C294.629,66.043 294.512,65.493 294.512,64.88L294.512,64.757Z" style="fill:white;fill-rule:nonzero;"/>
            </g>
            <g transform="matrix(2.01505,0,0,4.03609,-430.363,1457.84)">
                <path d="M243.13,-333.715C243.236,-335.606 244.162,-337.272 245.559,-338.453C246.929,-339.613 248.773,-340.322 250.785,-340.322C252.795,-340.322 254.639,-339.613 256.01,-338.453C257.406,-337.272 258.332,-335.606 258.439,-333.717C258.545,-331.774 257.764,-329.969 256.394,-328.631C254.997,-327.27 253.01,-326.416 250.785,-326.416C248.56,-326.416 246.569,-327.27 245.173,-328.631C243.802,-329.969 243.023,-331.774 243.13,-333.715Z" style="fill:white;fill-rule:nonzero;"/>
            </g>
            <g transform="matrix(2.01505,0,0,4.03609,-430.363,1457.84)">
                <path d="M230.94,-329.894C230.953,-329.154 231.189,-327.716 231.543,-326.593C232.287,-324.216 233.549,-322.017 235.305,-320.079C237.107,-318.087 239.326,-316.487 241.889,-315.351C244.583,-314.158 247.502,-313.55 250.534,-313.555C253.561,-313.559 256.48,-314.179 259.174,-315.381C261.737,-316.528 263.954,-318.135 265.753,-320.128C267.508,-322.074 268.768,-324.277 269.514,-326.654C269.889,-327.855 270.126,-329.074 270.221,-330.297C270.314,-331.502 270.275,-332.709 270.104,-333.915C269.77,-336.265 268.957,-338.47 267.705,-340.48C266.56,-342.327 265.084,-343.944 263.329,-345.305L263.333,-345.308L245.622,-358.907C245.606,-358.919 245.593,-358.932 245.576,-358.943C244.414,-359.835 242.46,-359.832 241.182,-358.938C239.89,-358.034 239.742,-356.539 240.892,-355.596L240.887,-355.591L248.274,-349.584L225.759,-349.56L225.729,-349.56C223.868,-349.558 222.079,-348.337 221.725,-346.794C221.361,-345.222 222.625,-343.918 224.56,-343.911L224.557,-343.904L235.969,-343.926L215.605,-328.295C215.579,-328.276 215.551,-328.256 215.527,-328.237C213.606,-326.766 212.985,-324.32 214.195,-322.772C215.423,-321.198 218.034,-321.195 219.975,-322.763L231.089,-331.859C231.089,-331.859 230.927,-330.631 230.94,-329.894ZM259.499,-325.782C257.209,-323.449 254.003,-322.126 250.534,-322.119C247.06,-322.113 243.854,-323.424 241.564,-325.753C240.445,-326.888 239.623,-328.194 239.116,-329.585C238.619,-330.952 238.426,-332.403 238.554,-333.867C238.675,-335.298 239.101,-336.663 239.781,-337.898C240.449,-339.112 241.369,-340.209 242.505,-341.137C244.731,-342.951 247.565,-343.933 250.529,-343.937C253.496,-343.941 256.328,-342.968 258.556,-341.16C259.69,-340.236 260.609,-339.143 261.277,-337.931C261.96,-336.697 262.383,-335.337 262.509,-333.902C262.635,-332.44 262.442,-330.991 261.945,-329.623C261.437,-328.228 260.618,-326.922 259.499,-325.782Z" style="fill:white;fill-rule:nonzero;"/>
            </g>
        </g>
    </g>
</svg>
